<svg xmlns="http://www.w3.org/2000/svg" version="1.1" xmlns:xlink="http://www.w3.org/1999/xlink" xmlns:svgjs="http://svgjs.com/svgjs" width="1440" height="560" preserveAspectRatio="none" viewBox="0 0 1440 560"><g mask="url(&quot;#SvgjsMask1014&quot;)" fill="none"><path d="M-86.49 405.12L-86.49 405.12" stroke="rgba(15, 23, 41, 1)" stroke-width="1.5"></path><path d="M-86.49 405.12L-105.26 548.41" stroke="rgba(15, 23, 41, 1)" stroke-width="1.5"></path><path d="M-86.49 405.12L74.73 346.56" stroke="rgba(15, 23, 41, 1)" stroke-width="1.5"></path><path d="M-105.26 548.41L-105.26 548.41" stroke="rgba(15, 23, 41, 1)" stroke-width="1.5"></path><path d="M-105.26 548.41L-90.2 707.29" stroke="rgba(15, 23, 41, 1)" stroke-width="1.5"></path><path d="M-105.26 548.41L68.46 540.27" stroke="rgba(15, 23, 41, 1)" stroke-width="1.5"></path><path d="M-90.2 707.29L-90.2 707.29" stroke="rgba(15, 23, 41, 1)" stroke-width="1.5"></path><path d="M-90.2 707.29L89.43 644.35" stroke="rgba(15, 23, 41, 1)" stroke-width="1.5"></path><path d="M74.73 346.56L74.73 346.56" stroke="rgba(15, 23, 41, 1)" stroke-width="1.5"></path><path d="M74.73 346.56L195.48 350.95" stroke="rgba(15, 23, 41, 1)" stroke-width="1.5"></path><path d="M74.73 346.56L68.46 540.27" stroke="rgba(15, 23, 41, 1)" stroke-width="1.5"></path><path d="M68.46 540.27L68.46 540.27" stroke="rgba(15, 23, 41, 1)" stroke-width="1.5"></path><path d="M68.46 540.27L89.43 644.35" stroke="rgba(15, 23, 41, 1)" stroke-width="1.5"></path><path d="M68.46 540.27L206.95 541.51" stroke="rgba(15, 23, 41, 1)" stroke-width="1.5"></path><path d="M68.46 540.27L217.06 656.38" stroke="rgba(15, 23, 41, 1)" stroke-width="1.5"></path><path d="M89.43 644.35L89.43 644.35" stroke="rgba(15, 23, 41, 1)" stroke-width="1.5"></path><path d="M89.43 644.35L217.06 656.38" stroke="rgba(15, 23, 41, 1)" stroke-width="1.5"></path><path d="M195.48 350.95L195.48 350.95" stroke="rgba(15, 23, 41, 1)" stroke-width="1.5"></path><path d="M195.48 350.95L359.47 400.31" stroke="rgba(15, 23, 41, 1)" stroke-width="1.5"></path><path d="M195.48 350.95L206.95 541.51" stroke="rgba(15, 23, 41, 1)" stroke-width="1.5"></path><path d="M195.48 350.95L68.46 540.27" stroke="rgba(15, 23, 41, 1)" stroke-width="1.5"></path><path d="M195.48 350.95L354.75 518.47" stroke="rgba(15, 23, 41, 1)" stroke-width="1.5"></path><path d="M206.95 541.51L206.95 541.51" stroke="rgba(15, 23, 41, 1)" stroke-width="1.5"></path><path d="M206.95 541.51L217.06 656.38" stroke="rgba(15, 23, 41, 1)" stroke-width="1.5"></path><path d="M206.95 541.51L354.75 518.47" stroke="rgba(15, 23, 41, 1)" stroke-width="1.5"></path><path d="M206.95 541.51L89.43 644.35" stroke="rgba(15, 23, 41, 1)" stroke-width="1.5"></path><path d="M206.95 541.51L347.23 665.74" stroke="rgba(15, 23, 41, 1)" stroke-width="1.5"></path><path d="M217.06 656.38L217.06 656.38" stroke="rgba(15, 23, 41, 1)" stroke-width="1.5"></path><path d="M359.47 400.31L359.47 400.31" stroke="rgba(15, 23, 41, 1)" stroke-width="1.5"></path><path d="M359.47 400.31L354.75 518.47" stroke="rgba(15, 23, 41, 1)" stroke-width="1.5"></path><path d="M359.47 400.31L489.35 411.05" stroke="rgba(15, 23, 41, 1)" stroke-width="1.5"></path><path d="M354.75 518.47L354.75 518.47" stroke="rgba(15, 23, 41, 1)" stroke-width="1.5"></path><path d="M347.23 665.74L347.23 665.74" stroke="rgba(15, 23, 41, 1)" stroke-width="1.5"></path><path d="M347.23 665.74L217.06 656.38" stroke="rgba(15, 23, 41, 1)" stroke-width="1.5"></path><path d="M347.23 665.74L354.75 518.47" stroke="rgba(15, 23, 41, 1)" stroke-width="1.5"></path><path d="M347.23 665.74L549.34 663.27" stroke="rgba(15, 23, 41, 1)" stroke-width="1.5"></path><path d="M347.23 665.74L540.78 524.03" stroke="rgba(15, 23, 41, 1)" stroke-width="1.5"></path><path d="M489.35 411.05L489.35 411.05" stroke="rgba(15, 23, 41, 1)" stroke-width="1.5"></path><path d="M489.35 411.05L540.78 524.03" stroke="rgba(15, 23, 41, 1)" stroke-width="1.5"></path><path d="M489.35 411.05L645.72 399.57" stroke="rgba(15, 23, 41, 1)" stroke-width="1.5"></path><path d="M489.35 411.05L354.75 518.47" stroke="rgba(15, 23, 41, 1)" stroke-width="1.5"></path><path d="M489.35 411.05L637.76 540.76" stroke="rgba(15, 23, 41, 1)" stroke-width="1.5"></path><path d="M540.78 524.03L540.78 524.03" stroke="rgba(15, 23, 41, 1)" stroke-width="1.5"></path><path d="M540.78 524.03L637.76 540.76" stroke="rgba(15, 23, 41, 1)" stroke-width="1.5"></path><path d="M540.78 524.03L549.34 663.27" stroke="rgba(15, 23, 41, 1)" stroke-width="1.5"></path><path d="M549.34 663.27L549.34 663.27" stroke="rgba(15, 23, 41, 1)" stroke-width="1.5"></path><path d="M549.34 663.27L678.44 693.8" stroke="rgba(15, 23, 41, 1)" stroke-width="1.5"></path><path d="M549.34 663.27L637.76 540.76" stroke="rgba(15, 23, 41, 1)" stroke-width="1.5"></path><path d="M667.78 218.09L667.78 218.09" stroke="rgba(15, 23, 41, 1)" stroke-width="1.5"></path><path d="M667.78 218.09L815.57 189.25" stroke="rgba(15, 23, 41, 1)" stroke-width="1.5"></path><path d="M667.78 218.09L645.72 399.57" stroke="rgba(15, 23, 41, 1)" stroke-width="1.5"></path><path d="M645.72 399.57L645.72 399.57" stroke="rgba(15, 23, 41, 1)" stroke-width="1.5"></path><path d="M645.72 399.57L637.76 540.76" stroke="rgba(15, 23, 41, 1)" stroke-width="1.5"></path><path d="M645.72 399.57L540.78 524.03" stroke="rgba(15, 23, 41, 1)" stroke-width="1.5"></path><path d="M637.76 540.76L637.76 540.76" stroke="rgba(15, 23, 41, 1)" stroke-width="1.5"></path><path d="M637.76 540.76L678.44 693.8" stroke="rgba(15, 23, 41, 1)" stroke-width="1.5"></path><path d="M678.44 693.8L678.44 693.8" stroke="rgba(15, 23, 41, 1)" stroke-width="1.5"></path><path d="M678.44 693.8L814.24 681.81" stroke="rgba(15, 23, 41, 1)" stroke-width="1.5"></path><path d="M815.57 189.25L815.57 189.25" stroke="rgba(15, 23, 41, 1)" stroke-width="1.5"></path><path d="M815.57 189.25L815.04 364.07" stroke="rgba(15, 23, 41, 1)" stroke-width="1.5"></path><path d="M815.04 364.07L815.04 364.07" stroke="rgba(15, 23, 41, 1)" stroke-width="1.5"></path><path d="M815.04 364.07L842.05 507.05" stroke="rgba(15, 23, 41, 1)" stroke-width="1.5"></path><path d="M815.04 364.07L961.42 378.48" stroke="rgba(15, 23, 41, 1)" stroke-width="1.5"></path><path d="M815.04 364.07L645.72 399.57" stroke="rgba(15, 23, 41, 1)" stroke-width="1.5"></path><path d="M842.05 507.05L842.05 507.05" stroke="rgba(15, 23, 41, 1)" stroke-width="1.5"></path><path d="M842.05 507.05L1002.86 497.64" stroke="rgba(15, 23, 41, 1)" stroke-width="1.5"></path><path d="M842.05 507.05L961.42 378.48" stroke="rgba(15, 23, 41, 1)" stroke-width="1.5"></path><path d="M842.05 507.05L814.24 681.81" stroke="rgba(15, 23, 41, 1)" stroke-width="1.5"></path><path d="M842.05 507.05L963.91 639.74" stroke="rgba(15, 23, 41, 1)" stroke-width="1.5"></path><path d="M814.24 681.81L814.24 681.81" stroke="rgba(15, 23, 41, 1)" stroke-width="1.5"></path><path d="M814.24 681.81L963.91 639.74" stroke="rgba(15, 23, 41, 1)" stroke-width="1.5"></path><path d="M814.24 681.81L637.76 540.76" stroke="rgba(15, 23, 41, 1)" stroke-width="1.5"></path><path d="M991.6 -111.93L991.6 -111.93" stroke="rgba(15, 23, 41, 1)" stroke-width="1.5"></path><path d="M991.6 -111.93L1142.82 -74.13" stroke="rgba(15, 23, 41, 1)" stroke-width="1.5"></path><path d="M991.6 -111.93L1009.02 47.74" stroke="rgba(15, 23, 41, 1)" stroke-width="1.5"></path><path d="M991.6 -111.93L1126.9 68.17" stroke="rgba(15, 23, 41, 1)" stroke-width="1.5"></path><path d="M991.6 -111.93L1142.85 189.29" stroke="rgba(15, 23, 41, 1)" stroke-width="1.5"></path><path d="M991.6 -111.93L815.57 189.25" stroke="rgba(15, 23, 41, 1)" stroke-width="1.5"></path><path d="M1009.02 47.74L1009.02 47.74" stroke="rgba(15, 23, 41, 1)" stroke-width="1.5"></path><path d="M1009.02 47.74L1126.9 68.17" stroke="rgba(15, 23, 41, 1)" stroke-width="1.5"></path><path d="M1009.02 47.74L1142.82 -74.13" stroke="rgba(15, 23, 41, 1)" stroke-width="1.5"></path><path d="M1009.02 47.74L1142.85 189.29" stroke="rgba(15, 23, 41, 1)" stroke-width="1.5"></path><path d="M1009.02 47.74L815.57 189.25" stroke="rgba(15, 23, 41, 1)" stroke-width="1.5"></path><path d="M1009.02 47.74L1302.7 57.36" stroke="rgba(15, 23, 41, 1)" stroke-width="1.5"></path><path d="M961.42 378.48L961.42 378.48" stroke="rgba(15, 23, 41, 1)" stroke-width="1.5"></path><path d="M961.42 378.48L1002.86 497.64" stroke="rgba(15, 23, 41, 1)" stroke-width="1.5"></path><path d="M1002.86 497.64L1002.86 497.64" stroke="rgba(15, 23, 41, 1)" stroke-width="1.5"></path><path d="M1002.86 497.64L1113.95 522.94" stroke="rgba(15, 23, 41, 1)" stroke-width="1.5"></path><path d="M1002.86 497.64L963.91 639.74" stroke="rgba(15, 23, 41, 1)" stroke-width="1.5"></path><path d="M963.91 639.74L963.91 639.74" stroke="rgba(15, 23, 41, 1)" stroke-width="1.5"></path><path d="M963.91 639.74L1113.17 656.3" stroke="rgba(15, 23, 41, 1)" stroke-width="1.5"></path><path d="M1142.82 -74.13L1142.82 -74.13" stroke="rgba(15, 23, 41, 1)" stroke-width="1.5"></path><path d="M1142.82 -74.13L1126.9 68.17" stroke="rgba(15, 23, 41, 1)" stroke-width="1.5"></path><path d="M1126.9 68.17L1126.9 68.17" stroke="rgba(15, 23, 41, 1)" stroke-width="1.5"></path><path d="M1126.9 68.17L1142.85 189.29" stroke="rgba(15, 23, 41, 1)" stroke-width="1.5"></path><path d="M1126.9 68.17L1302.7 57.36" stroke="rgba(15, 23, 41, 1)" stroke-width="1.5"></path><path d="M1142.85 189.29L1142.85 189.29" stroke="rgba(15, 23, 41, 1)" stroke-width="1.5"></path><path d="M1142.85 189.29L1302.25 249.96" stroke="rgba(15, 23, 41, 1)" stroke-width="1.5"></path><path d="M1142.85 189.29L1113.38 364.69" stroke="rgba(15, 23, 41, 1)" stroke-width="1.5"></path><path d="M1113.38 364.69L1113.38 364.69" stroke="rgba(15, 23, 41, 1)" stroke-width="1.5"></path><path d="M1113.38 364.69L961.42 378.48" stroke="rgba(15, 23, 41, 1)" stroke-width="1.5"></path><path d="M1113.95 522.94L1113.95 522.94" stroke="rgba(15, 23, 41, 1)" stroke-width="1.5"></path><path d="M1113.95 522.94L1113.17 656.3" stroke="rgba(15, 23, 41, 1)" stroke-width="1.5"></path><path d="M1113.95 522.94L1244 560.28" stroke="rgba(15, 23, 41, 1)" stroke-width="1.5"></path><path d="M1113.95 522.94L1113.38 364.69" stroke="rgba(15, 23, 41, 1)" stroke-width="1.5"></path><path d="M1113.95 522.94L963.91 639.74" stroke="rgba(15, 23, 41, 1)" stroke-width="1.5"></path><path d="M1113.17 656.3L1113.17 656.3" stroke="rgba(15, 23, 41, 1)" stroke-width="1.5"></path><path d="M1113.17 656.3L1244 560.28" stroke="rgba(15, 23, 41, 1)" stroke-width="1.5"></path><path d="M1113.17 656.3L1275.38 691.04" stroke="rgba(15, 23, 41, 1)" stroke-width="1.5"></path><path d="M1113.17 656.3L1002.86 497.64" stroke="rgba(15, 23, 41, 1)" stroke-width="1.5"></path><path d="M1113.17 656.3L1391.58 686.11" stroke="rgba(15, 23, 41, 1)" stroke-width="1.5"></path><path d="M1302.7 57.36L1302.7 57.36" stroke="rgba(15, 23, 41, 1)" stroke-width="1.5"></path><path d="M1302.7 57.36L1404.76 108.45" stroke="rgba(15, 23, 41, 1)" stroke-width="1.5"></path><path d="M1302.7 57.36L1444.38 -55.34" stroke="rgba(15, 23, 41, 1)" stroke-width="1.5"></path><path d="M1302.7 57.36L1302.25 249.96" stroke="rgba(15, 23, 41, 1)" stroke-width="1.5"></path><path d="M1302.25 249.96L1302.25 249.96" stroke="rgba(15, 23, 41, 1)" stroke-width="1.5"></path><path d="M1302.25 249.96L1277.13 339.68" stroke="rgba(15, 23, 41, 1)" stroke-width="1.5"></path><path d="M1302.25 249.96L1398.09 258.58" stroke="rgba(15, 23, 41, 1)" stroke-width="1.5"></path><path d="M1302.25 249.96L1406.99 378.4" stroke="rgba(15, 23, 41, 1)" stroke-width="1.5"></path><path d="M1302.25 249.96L1404.76 108.45" stroke="rgba(15, 23, 41, 1)" stroke-width="1.5"></path><path d="M1277.13 339.68L1277.13 339.68" stroke="rgba(15, 23, 41, 1)" stroke-width="1.5"></path><path d="M1277.13 339.68L1406.99 378.4" stroke="rgba(15, 23, 41, 1)" stroke-width="1.5"></path><path d="M1277.13 339.68L1398.09 258.58" stroke="rgba(15, 23, 41, 1)" stroke-width="1.5"></path><path d="M1244 560.28L1244 560.28" stroke="rgba(15, 23, 41, 1)" stroke-width="1.5"></path><path d="M1244 560.28L1275.38 691.04" stroke="rgba(15, 23, 41, 1)" stroke-width="1.5"></path><path d="M1275.38 691.04L1275.38 691.04" stroke="rgba(15, 23, 41, 1)" stroke-width="1.5"></path><path d="M1275.38 691.04L1391.58 686.11" stroke="rgba(15, 23, 41, 1)" stroke-width="1.5"></path><path d="M1275.38 691.04L1392.7 526.27" stroke="rgba(15, 23, 41, 1)" stroke-width="1.5"></path><path d="M1275.38 691.04L1113.95 522.94" stroke="rgba(15, 23, 41, 1)" stroke-width="1.5"></path><path d="M1444.38 -55.34L1444.38 -55.34" stroke="rgba(15, 23, 41, 1)" stroke-width="1.5"></path><path d="M1444.38 -55.34L1610.25 -49.87" stroke="rgba(15, 23, 41, 1)" stroke-width="1.5"></path><path d="M1444.38 -55.34L1404.76 108.45" stroke="rgba(15, 23, 41, 1)" stroke-width="1.5"></path><path d="M1444.38 -55.34L1589.42 91.75" stroke="rgba(15, 23, 41, 1)" stroke-width="1.5"></path><path d="M1444.38 -55.34L1556.6 204.12" stroke="rgba(15, 23, 41, 1)" stroke-width="1.5"></path><path d="M1444.38 -55.34L1142.82 -74.13" stroke="rgba(15, 23, 41, 1)" stroke-width="1.5"></path><path d="M1404.76 108.45L1404.76 108.45" stroke="rgba(15, 23, 41, 1)" stroke-width="1.5"></path><path d="M1404.76 108.45L1398.09 258.58" stroke="rgba(15, 23, 41, 1)" stroke-width="1.5"></path><path d="M1398.09 258.58L1398.09 258.58" stroke="rgba(15, 23, 41, 1)" stroke-width="1.5"></path><path d="M1398.09 258.58L1406.99 378.4" stroke="rgba(15, 23, 41, 1)" stroke-width="1.5"></path><path d="M1406.99 378.4L1406.99 378.4" stroke="rgba(15, 23, 41, 1)" stroke-width="1.5"></path><path d="M1406.99 378.4L1392.7 526.27" stroke="rgba(15, 23, 41, 1)" stroke-width="1.5"></path><path d="M1406.99 378.4L1577.83 408.04" stroke="rgba(15, 23, 41, 1)" stroke-width="1.5"></path><path d="M1406.99 378.4L1556.6 204.12" stroke="rgba(15, 23, 41, 1)" stroke-width="1.5"></path><path d="M1392.7 526.27L1392.7 526.27" stroke="rgba(15, 23, 41, 1)" stroke-width="1.5"></path><path d="M1392.7 526.27L1244 560.28" stroke="rgba(15, 23, 41, 1)" stroke-width="1.5"></path><path d="M1392.7 526.27L1391.58 686.11" stroke="rgba(15, 23, 41, 1)" stroke-width="1.5"></path><path d="M1391.58 686.11L1391.58 686.11" stroke="rgba(15, 23, 41, 1)" stroke-width="1.5"></path><path d="M1610.25 -49.87L1610.25 -49.87" stroke="rgba(15, 23, 41, 1)" stroke-width="1.5"></path><path d="M1610.25 -49.87L1589.42 91.75" stroke="rgba(15, 23, 41, 1)" stroke-width="1.5"></path><path d="M1610.25 -49.87L1404.76 108.45" stroke="rgba(15, 23, 41, 1)" stroke-width="1.5"></path><path d="M1589.42 91.75L1589.42 91.75" stroke="rgba(15, 23, 41, 1)" stroke-width="1.5"></path><path d="M1589.42 91.75L1556.6 204.12" stroke="rgba(15, 23, 41, 1)" stroke-width="1.5"></path><path d="M1589.42 91.75L1404.76 108.45" stroke="rgba(15, 23, 41, 1)" stroke-width="1.5"></path><path d="M1589.42 91.75L1398.09 258.58" stroke="rgba(15, 23, 41, 1)" stroke-width="1.5"></path><path d="M1589.42 91.75L1302.7 57.36" stroke="rgba(15, 23, 41, 1)" stroke-width="1.5"></path><path d="M1556.6 204.12L1556.6 204.12" stroke="rgba(15, 23, 41, 1)" stroke-width="1.5"></path><path d="M1556.6 204.12L1398.09 258.58" stroke="rgba(15, 23, 41, 1)" stroke-width="1.5"></path><path d="M1556.6 204.12L1404.76 108.45" stroke="rgba(15, 23, 41, 1)" stroke-width="1.5"></path><path d="M1577.83 408.04L1577.83 408.04" stroke="rgba(15, 23, 41, 1)" stroke-width="1.5"></path><path d="M1577.83 408.04L1596.53 552.11" stroke="rgba(15, 23, 41, 1)" stroke-width="1.5"></path><path d="M1577.83 408.04L1556.6 204.12" stroke="rgba(15, 23, 41, 1)" stroke-width="1.5"></path><path d="M1577.83 408.04L1392.7 526.27" stroke="rgba(15, 23, 41, 1)" stroke-width="1.5"></path><path d="M1596.53 552.11L1596.53 552.11" stroke="rgba(15, 23, 41, 1)" stroke-width="1.5"></path><path d="M1596.53 552.11L1591.61 654.57" stroke="rgba(15, 23, 41, 1)" stroke-width="1.5"></path><path d="M1596.53 552.11L1392.7 526.27" stroke="rgba(15, 23, 41, 1)" stroke-width="1.5"></path><path d="M1596.53 552.11L1391.58 686.11" stroke="rgba(15, 23, 41, 1)" stroke-width="1.5"></path><path d="M1596.53 552.11L1406.99 378.4" stroke="rgba(15, 23, 41, 1)" stroke-width="1.5"></path><path d="M1596.53 552.11L1275.38 691.04" stroke="rgba(15, 23, 41, 1)" stroke-width="1.5"></path><path d="M1591.61 654.57L1591.61 654.57" stroke="rgba(15, 23, 41, 1)" stroke-width="1.5"></path><path d="M1591.61 654.57L1391.58 686.11" stroke="rgba(15, 23, 41, 1)" stroke-width="1.5"></path><path d="M1591.61 654.57L1392.7 526.27" stroke="rgba(15, 23, 41, 1)" stroke-width="1.5"></path><circle r="5" cx="-86.49" cy="405.12" fill="rgba(15, 23, 41, 1)"></circle><circle r="5" cx="-105.26" cy="548.41" fill="rgba(15, 23, 41, 1)"></circle><circle r="5" cx="-90.2" cy="707.29" fill="rgba(15, 23, 41, 1)"></circle><circle r="5" cx="74.73" cy="346.56" fill="rgba(15, 23, 41, 1)"></circle><circle r="5" cx="68.46" cy="540.27" fill="rgba(15, 23, 41, 1)"></circle><circle r="5" cx="89.43" cy="644.35" fill="rgba(15, 23, 41, 1)"></circle><circle r="5" cx="195.48" cy="350.95" fill="rgba(15, 23, 41, 1)"></circle><circle r="5" cx="206.95" cy="541.51" fill="rgba(15, 23, 41, 1)"></circle><circle r="5" cx="217.06" cy="656.38" fill="rgba(15, 23, 41, 1)"></circle><circle r="5" cx="359.47" cy="400.31" fill="rgba(15, 23, 41, 1)"></circle><circle r="5" cx="354.75" cy="518.47" fill="rgba(15, 23, 41, 1)"></circle><circle r="5" cx="347.23" cy="665.74" fill="rgba(15, 23, 41, 1)"></circle><circle r="5" cx="489.35" cy="411.05" fill="rgba(15, 23, 41, 1)"></circle><circle r="5" cx="540.78" cy="524.03" fill="rgba(15, 23, 41, 1)"></circle><circle r="5" cx="549.34" cy="663.27" fill="rgba(15, 23, 41, 1)"></circle><circle r="5" cx="667.78" cy="218.09" fill="rgba(15, 23, 41, 1)"></circle><circle r="5" cx="645.72" cy="399.57" fill="rgba(15, 23, 41, 1)"></circle><circle r="5" cx="637.76" cy="540.76" fill="rgba(15, 23, 41, 1)"></circle><circle r="5" cx="678.44" cy="693.8" fill="rgba(15, 23, 41, 1)"></circle><circle r="5" cx="815.57" cy="189.25" fill="rgba(15, 23, 41, 1)"></circle><circle r="5" cx="815.04" cy="364.07" fill="rgba(15, 23, 41, 1)"></circle><circle r="5" cx="842.05" cy="507.05" fill="rgba(15, 23, 41, 1)"></circle><circle r="5" cx="814.24" cy="681.81" fill="rgba(15, 23, 41, 1)"></circle><circle r="5" cx="991.6" cy="-111.93" fill="rgba(15, 23, 41, 1)"></circle><circle r="5" cx="1009.02" cy="47.74" fill="rgba(15, 23, 41, 1)"></circle><circle r="5" cx="961.42" cy="378.48" fill="rgba(15, 23, 41, 1)"></circle><circle r="5" cx="1002.86" cy="497.64" fill="rgba(15, 23, 41, 1)"></circle><circle r="5" cx="963.91" cy="639.74" fill="rgba(15, 23, 41, 1)"></circle><circle r="5" cx="1142.82" cy="-74.13" fill="rgba(15, 23, 41, 1)"></circle><circle r="5" cx="1126.9" cy="68.17" fill="rgba(15, 23, 41, 1)"></circle><circle r="5" cx="1142.85" cy="189.29" fill="rgba(15, 23, 41, 1)"></circle><circle r="5" cx="1113.38" cy="364.69" fill="rgba(15, 23, 41, 1)"></circle><circle r="5" cx="1113.95" cy="522.94" fill="rgba(15, 23, 41, 1)"></circle><circle r="5" cx="1113.17" cy="656.3" fill="rgba(15, 23, 41, 1)"></circle><circle r="5" cx="1302.7" cy="57.36" fill="rgba(15, 23, 41, 1)"></circle><circle r="5" cx="1302.25" cy="249.96" fill="rgba(15, 23, 41, 1)"></circle><circle r="5" cx="1277.13" cy="339.68" fill="rgba(15, 23, 41, 1)"></circle><circle r="5" cx="1244" cy="560.28" fill="rgba(15, 23, 41, 1)"></circle><circle r="5" cx="1275.38" cy="691.04" fill="rgba(15, 23, 41, 1)"></circle><circle r="5" cx="1444.38" cy="-55.34" fill="rgba(15, 23, 41, 1)"></circle><circle r="5" cx="1404.76" cy="108.45" fill="rgba(15, 23, 41, 1)"></circle><circle r="5" cx="1398.09" cy="258.58" fill="rgba(15, 23, 41, 1)"></circle><circle r="5" cx="1406.99" cy="378.4" fill="rgba(15, 23, 41, 1)"></circle><circle r="5" cx="1392.7" cy="526.27" fill="rgba(15, 23, 41, 1)"></circle><circle r="5" cx="1391.58" cy="686.11" fill="rgba(15, 23, 41, 1)"></circle><circle r="5" cx="1610.25" cy="-49.87" fill="rgba(15, 23, 41, 1)"></circle><circle r="5" cx="1589.42" cy="91.75" fill="rgba(15, 23, 41, 1)"></circle><circle r="5" cx="1556.6" cy="204.12" fill="rgba(15, 23, 41, 1)"></circle><circle r="5" cx="1577.83" cy="408.04" fill="rgba(15, 23, 41, 1)"></circle><circle r="5" cx="1596.53" cy="552.11" fill="rgba(15, 23, 41, 1)"></circle><circle r="5" cx="1591.61" cy="654.57" fill="rgba(15, 23, 41, 1)"></circle><path d="M-53.44 642.84L-53.44 642.84" stroke="hsl(237.60000000000002, 98.9%, 85.1%)" stroke-width="1.5"></path><path d="M-53.44 642.84L-84.3 558.76" stroke="hsl(237.60000000000002, 98.9%, 85.1%)" stroke-width="1.5"></path><path d="M-53.44 642.84L91.69 671.07" stroke="hsl(237.60000000000002, 98.9%, 85.1%)" stroke-width="1.5"></path><path d="M-53.44 642.84L222.19 679.37" stroke="hsl(237.60000000000002, 98.9%, 85.1%)" stroke-width="1.5"></path><path d="M-53.44 642.84L210.5 531.62" stroke="hsl(237.60000000000002, 98.9%, 85.1%)" stroke-width="1.5"></path><path d="M210.5 531.62L210.5 531.62" stroke="hsl(237.60000000000002, 98.9%, 85.1%)" stroke-width="1.5"></path><path d="M210.5 531.62L222.19 679.37" stroke="hsl(237.60000000000002, 98.9%, 85.1%)" stroke-width="1.5"></path><path d="M210.5 531.62L91.69 671.07" stroke="hsl(237.60000000000002, 98.9%, 85.1%)" stroke-width="1.5"></path><path d="M210.5 531.62L395.94 490.92" stroke="hsl(237.60000000000002, 98.9%, 85.1%)" stroke-width="1.5"></path><path d="M395.94 490.92L395.94 490.92" stroke="hsl(237.60000000000002, 98.9%, 85.1%)" stroke-width="1.5"></path><path d="M395.94 490.92L496 545.24" stroke="hsl(237.60000000000002, 98.9%, 85.1%)" stroke-width="1.5"></path><path d="M395.94 490.92L392.09 708.16" stroke="hsl(237.60000000000002, 98.9%, 85.1%)" stroke-width="1.5"></path><path d="M496 545.24L496 545.24" stroke="hsl(237.60000000000002, 98.9%, 85.1%)" stroke-width="1.5"></path><path d="M496 545.24L532.16 684.97" stroke="hsl(237.60000000000002, 98.9%, 85.1%)" stroke-width="1.5"></path><path d="M496 545.24L658.21 492.54" stroke="hsl(237.60000000000002, 98.9%, 85.1%)" stroke-width="1.5"></path><path d="M496 545.24L652.1 639.05" stroke="hsl(237.60000000000002, 98.9%, 85.1%)" stroke-width="1.5"></path><path d="M496 545.24L392.09 708.16" stroke="hsl(237.60000000000002, 98.9%, 85.1%)" stroke-width="1.5"></path><path d="M532.16 684.97L532.16 684.97" stroke="hsl(237.60000000000002, 98.9%, 85.1%)" stroke-width="1.5"></path><path d="M532.16 684.97L652.1 639.05" stroke="hsl(237.60000000000002, 98.9%, 85.1%)" stroke-width="1.5"></path><path d="M532.16 684.97L392.09 708.16" stroke="hsl(237.60000000000002, 98.9%, 85.1%)" stroke-width="1.5"></path><path d="M658.21 492.54L658.21 492.54" stroke="hsl(237.60000000000002, 98.9%, 85.1%)" stroke-width="1.5"></path><path d="M658.21 492.54L689.34 404.34" stroke="hsl(237.60000000000002, 98.9%, 85.1%)" stroke-width="1.5"></path><path d="M658.21 492.54L652.1 639.05" stroke="hsl(237.60000000000002, 98.9%, 85.1%)" stroke-width="1.5"></path><path d="M658.21 492.54L830.68 515.6" stroke="hsl(237.60000000000002, 98.9%, 85.1%)" stroke-width="1.5"></path><path d="M658.21 492.54L532.16 684.97" stroke="hsl(237.60000000000002, 98.9%, 85.1%)" stroke-width="1.5"></path><path d="M1128.62 684.75L1128.62 684.75" stroke="hsl(237.60000000000002, 98.9%, 85.1%)" stroke-width="1.5"></path><path d="M1128.62 684.75L1273.57 654.63" stroke="hsl(237.60000000000002, 98.9%, 85.1%)" stroke-width="1.5"></path><path d="M1128.62 684.75L1112.87 504.61" stroke="hsl(237.60000000000002, 98.9%, 85.1%)" stroke-width="1.5"></path><path d="M1449.14 -90.46L1449.14 -90.46" stroke="hsl(237.60000000000002, 98.9%, 85.1%)" stroke-width="1.5"></path><path d="M1449.14 -90.46L1542.42 -87.65" stroke="hsl(237.60000000000002, 98.9%, 85.1%)" stroke-width="1.5"></path><path d="M1449.14 -90.46L1567.63 42.94" stroke="hsl(237.60000000000002, 98.9%, 85.1%)" stroke-width="1.5"></path><path d="M1449.14 -90.46L1451.94 92.45" stroke="hsl(237.60000000000002, 98.9%, 85.1%)" stroke-width="1.5"></path><path d="M1449.14 -90.46L1243.82 -109.37" stroke="hsl(237.60000000000002, 98.9%, 85.1%)" stroke-width="1.5"></path><path d="M1449.14 -90.46L1251.78 109.36" stroke="hsl(237.60000000000002, 98.9%, 85.1%)" stroke-width="1.5"></path><path d="M1449.14 -90.46L1417.02 190.75" stroke="hsl(237.60000000000002, 98.9%, 85.1%)" stroke-width="1.5"></path><path d="M-84.3 558.76L-84.3 558.76" stroke="hsl(237.60000000000002, 98.9%, 85.1%)" stroke-width="1.5"></path><path d="M-84.3 558.76L91.69 671.07" stroke="hsl(237.60000000000002, 98.9%, 85.1%)" stroke-width="1.5"></path><path d="M91.69 671.07L91.69 671.07" stroke="hsl(237.60000000000002, 98.9%, 85.1%)" stroke-width="1.5"></path><path d="M91.69 671.07L222.19 679.37" stroke="hsl(237.60000000000002, 98.9%, 85.1%)" stroke-width="1.5"></path><path d="M222.19 679.37L222.19 679.37" stroke="hsl(237.60000000000002, 98.9%, 85.1%)" stroke-width="1.5"></path><path d="M222.19 679.37L392.09 708.16" stroke="hsl(237.60000000000002, 98.9%, 85.1%)" stroke-width="1.5"></path><path d="M392.09 708.16L392.09 708.16" stroke="hsl(237.60000000000002, 98.9%, 85.1%)" stroke-width="1.5"></path><path d="M392.09 708.16L210.5 531.62" stroke="hsl(237.60000000000002, 98.9%, 85.1%)" stroke-width="1.5"></path><path d="M689.34 404.34L689.34 404.34" stroke="hsl(237.60000000000002, 98.9%, 85.1%)" stroke-width="1.5"></path><path d="M689.34 404.34L847.92 347.06" stroke="hsl(237.60000000000002, 98.9%, 85.1%)" stroke-width="1.5"></path><path d="M689.34 404.34L830.68 515.6" stroke="hsl(237.60000000000002, 98.9%, 85.1%)" stroke-width="1.5"></path><path d="M689.34 404.34L652.1 639.05" stroke="hsl(237.60000000000002, 98.9%, 85.1%)" stroke-width="1.5"></path><path d="M689.34 404.34L496 545.24" stroke="hsl(237.60000000000002, 98.9%, 85.1%)" stroke-width="1.5"></path><path d="M689.34 404.34L983.06 384.99" stroke="hsl(237.60000000000002, 98.9%, 85.1%)" stroke-width="1.5"></path><path d="M652.1 639.05L652.1 639.05" stroke="hsl(237.60000000000002, 98.9%, 85.1%)" stroke-width="1.5"></path><path d="M652.1 639.05L842.75 702.73" stroke="hsl(237.60000000000002, 98.9%, 85.1%)" stroke-width="1.5"></path><path d="M847.92 347.06L847.92 347.06" stroke="hsl(237.60000000000002, 98.9%, 85.1%)" stroke-width="1.5"></path><path d="M847.92 347.06L983.06 384.99" stroke="hsl(237.60000000000002, 98.9%, 85.1%)" stroke-width="1.5"></path><path d="M847.92 347.06L830.68 515.6" stroke="hsl(237.60000000000002, 98.9%, 85.1%)" stroke-width="1.5"></path><path d="M847.92 347.06L658.21 492.54" stroke="hsl(237.60000000000002, 98.9%, 85.1%)" stroke-width="1.5"></path><path d="M847.92 347.06L1115.96 411.11" stroke="hsl(237.60000000000002, 98.9%, 85.1%)" stroke-width="1.5"></path><path d="M830.68 515.6L830.68 515.6" stroke="hsl(237.60000000000002, 98.9%, 85.1%)" stroke-width="1.5"></path><path d="M830.68 515.6L842.75 702.73" stroke="hsl(237.60000000000002, 98.9%, 85.1%)" stroke-width="1.5"></path><path d="M830.68 515.6L983.06 384.99" stroke="hsl(237.60000000000002, 98.9%, 85.1%)" stroke-width="1.5"></path><path d="M842.75 702.73L842.75 702.73" stroke="hsl(237.60000000000002, 98.9%, 85.1%)" stroke-width="1.5"></path><path d="M842.75 702.73L658.21 492.54" stroke="hsl(237.60000000000002, 98.9%, 85.1%)" stroke-width="1.5"></path><path d="M983.06 384.99L983.06 384.99" stroke="hsl(237.60000000000002, 98.9%, 85.1%)" stroke-width="1.5"></path><path d="M983.06 384.99L1115.96 411.11" stroke="hsl(237.60000000000002, 98.9%, 85.1%)" stroke-width="1.5"></path><path d="M983.06 384.99L1112.87 504.61" stroke="hsl(237.60000000000002, 98.9%, 85.1%)" stroke-width="1.5"></path><path d="M983.06 384.99L1121.12 227.26" stroke="hsl(237.60000000000002, 98.9%, 85.1%)" stroke-width="1.5"></path><path d="M1121.12 227.26L1121.12 227.26" stroke="hsl(237.60000000000002, 98.9%, 85.1%)" stroke-width="1.5"></path><path d="M1121.12 227.26L1292.84 191.08" stroke="hsl(237.60000000000002, 98.9%, 85.1%)" stroke-width="1.5"></path><path d="M1121.12 227.26L1251.78 109.36" stroke="hsl(237.60000000000002, 98.9%, 85.1%)" stroke-width="1.5"></path><path d="M1121.12 227.26L1115.96 411.11" stroke="hsl(237.60000000000002, 98.9%, 85.1%)" stroke-width="1.5"></path><path d="M1121.12 227.26L1270.98 379.81" stroke="hsl(237.60000000000002, 98.9%, 85.1%)" stroke-width="1.5"></path><path d="M1121.12 227.26L1112.87 504.61" stroke="hsl(237.60000000000002, 98.9%, 85.1%)" stroke-width="1.5"></path><path d="M1115.96 411.11L1115.96 411.11" stroke="hsl(237.60000000000002, 98.9%, 85.1%)" stroke-width="1.5"></path><path d="M1115.96 411.11L1112.87 504.61" stroke="hsl(237.60000000000002, 98.9%, 85.1%)" stroke-width="1.5"></path><path d="M1115.96 411.11L1270.98 379.81" stroke="hsl(237.60000000000002, 98.9%, 85.1%)" stroke-width="1.5"></path><path d="M1115.96 411.11L1265.02 559.37" stroke="hsl(237.60000000000002, 98.9%, 85.1%)" stroke-width="1.5"></path><path d="M1112.87 504.61L1112.87 504.61" stroke="hsl(237.60000000000002, 98.9%, 85.1%)" stroke-width="1.5"></path><path d="M1112.87 504.61L1265.02 559.37" stroke="hsl(237.60000000000002, 98.9%, 85.1%)" stroke-width="1.5"></path><path d="M1243.82 -109.37L1243.82 -109.37" stroke="hsl(237.60000000000002, 98.9%, 85.1%)" stroke-width="1.5"></path><path d="M1243.82 -109.37L1251.78 109.36" stroke="hsl(237.60000000000002, 98.9%, 85.1%)" stroke-width="1.5"></path><path d="M1243.82 -109.37L1451.94 92.45" stroke="hsl(237.60000000000002, 98.9%, 85.1%)" stroke-width="1.5"></path><path d="M1243.82 -109.37L1542.42 -87.65" stroke="hsl(237.60000000000002, 98.9%, 85.1%)" stroke-width="1.5"></path><path d="M1243.82 -109.37L1292.84 191.08" stroke="hsl(237.60000000000002, 98.9%, 85.1%)" stroke-width="1.5"></path><path d="M1251.78 109.36L1251.78 109.36" stroke="hsl(237.60000000000002, 98.9%, 85.1%)" stroke-width="1.5"></path><path d="M1251.78 109.36L1292.84 191.08" stroke="hsl(237.60000000000002, 98.9%, 85.1%)" stroke-width="1.5"></path><path d="M1251.78 109.36L1417.02 190.75" stroke="hsl(237.60000000000002, 98.9%, 85.1%)" stroke-width="1.5"></path><path d="M1251.78 109.36L1451.94 92.45" stroke="hsl(237.60000000000002, 98.9%, 85.1%)" stroke-width="1.5"></path><path d="M1292.84 191.08L1292.84 191.08" stroke="hsl(237.60000000000002, 98.9%, 85.1%)" stroke-width="1.5"></path><path d="M1292.84 191.08L1417.02 190.75" stroke="hsl(237.60000000000002, 98.9%, 85.1%)" stroke-width="1.5"></path><path d="M1270.98 379.81L1270.98 379.81" stroke="hsl(237.60000000000002, 98.9%, 85.1%)" stroke-width="1.5"></path><path d="M1270.98 379.81L1411.95 373.98" stroke="hsl(237.60000000000002, 98.9%, 85.1%)" stroke-width="1.5"></path><path d="M1270.98 379.81L1265.02 559.37" stroke="hsl(237.60000000000002, 98.9%, 85.1%)" stroke-width="1.5"></path><path d="M1270.98 379.81L1292.84 191.08" stroke="hsl(237.60000000000002, 98.9%, 85.1%)" stroke-width="1.5"></path><path d="M1265.02 559.37L1265.02 559.37" stroke="hsl(237.60000000000002, 98.9%, 85.1%)" stroke-width="1.5"></path><path d="M1265.02 559.37L1273.57 654.63" stroke="hsl(237.60000000000002, 98.9%, 85.1%)" stroke-width="1.5"></path><path d="M1265.02 559.37L1415.03 550.24" stroke="hsl(237.60000000000002, 98.9%, 85.1%)" stroke-width="1.5"></path><path d="M1273.57 654.63L1273.57 654.63" stroke="hsl(237.60000000000002, 98.9%, 85.1%)" stroke-width="1.5"></path><path d="M1273.57 654.63L1434.13 685.08" stroke="hsl(237.60000000000002, 98.9%, 85.1%)" stroke-width="1.5"></path><path d="M1451.94 92.45L1451.94 92.45" stroke="hsl(237.60000000000002, 98.9%, 85.1%)" stroke-width="1.5"></path><path d="M1451.94 92.45L1417.02 190.75" stroke="hsl(237.60000000000002, 98.9%, 85.1%)" stroke-width="1.5"></path><path d="M1451.94 92.45L1567.63 42.94" stroke="hsl(237.60000000000002, 98.9%, 85.1%)" stroke-width="1.5"></path><path d="M1417.02 190.75L1417.02 190.75" stroke="hsl(237.60000000000002, 98.9%, 85.1%)" stroke-width="1.5"></path><path d="M1417.02 190.75L1557.15 235.82" stroke="hsl(237.60000000000002, 98.9%, 85.1%)" stroke-width="1.5"></path><path d="M1417.02 190.75L1411.95 373.98" stroke="hsl(237.60000000000002, 98.9%, 85.1%)" stroke-width="1.5"></path><path d="M1417.02 190.75L1567.63 42.94" stroke="hsl(237.60000000000002, 98.9%, 85.1%)" stroke-width="1.5"></path><path d="M1411.95 373.98L1411.95 373.98" stroke="hsl(237.60000000000002, 98.9%, 85.1%)" stroke-width="1.5"></path><path d="M1411.95 373.98L1415.03 550.24" stroke="hsl(237.60000000000002, 98.9%, 85.1%)" stroke-width="1.5"></path><path d="M1411.95 373.98L1590.67 342.25" stroke="hsl(237.60000000000002, 98.9%, 85.1%)" stroke-width="1.5"></path><path d="M1415.03 550.24L1415.03 550.24" stroke="hsl(237.60000000000002, 98.9%, 85.1%)" stroke-width="1.5"></path><path d="M1415.03 550.24L1434.13 685.08" stroke="hsl(237.60000000000002, 98.9%, 85.1%)" stroke-width="1.5"></path><path d="M1415.03 550.24L1573.76 549.51" stroke="hsl(237.60000000000002, 98.9%, 85.1%)" stroke-width="1.5"></path><path d="M1415.03 550.24L1561.1 646.56" stroke="hsl(237.60000000000002, 98.9%, 85.1%)" stroke-width="1.5"></path><path d="M1415.03 550.24L1273.57 654.63" stroke="hsl(237.60000000000002, 98.9%, 85.1%)" stroke-width="1.5"></path><path d="M1434.13 685.08L1434.13 685.08" stroke="hsl(237.60000000000002, 98.9%, 85.1%)" stroke-width="1.5"></path><path d="M1434.13 685.08L1561.1 646.56" stroke="hsl(237.60000000000002, 98.9%, 85.1%)" stroke-width="1.5"></path><path d="M1434.13 685.08L1573.76 549.51" stroke="hsl(237.60000000000002, 98.9%, 85.1%)" stroke-width="1.5"></path><path d="M1434.13 685.08L1265.02 559.37" stroke="hsl(237.60000000000002, 98.9%, 85.1%)" stroke-width="1.5"></path><path d="M1434.13 685.08L1128.62 684.75" stroke="hsl(237.60000000000002, 98.9%, 85.1%)" stroke-width="1.5"></path><path d="M1542.42 -87.65L1542.42 -87.65" stroke="hsl(237.60000000000002, 98.9%, 85.1%)" stroke-width="1.5"></path><path d="M1542.42 -87.65L1567.63 42.94" stroke="hsl(237.60000000000002, 98.9%, 85.1%)" stroke-width="1.5"></path><path d="M1542.42 -87.65L1451.94 92.45" stroke="hsl(237.60000000000002, 98.9%, 85.1%)" stroke-width="1.5"></path><path d="M1542.42 -87.65L1417.02 190.75" stroke="hsl(237.60000000000002, 98.9%, 85.1%)" stroke-width="1.5"></path><path d="M1542.42 -87.65L1557.15 235.82" stroke="hsl(237.60000000000002, 98.9%, 85.1%)" stroke-width="1.5"></path><path d="M1567.63 42.94L1567.63 42.94" stroke="hsl(237.60000000000002, 98.9%, 85.1%)" stroke-width="1.5"></path><path d="M1567.63 42.94L1557.15 235.82" stroke="hsl(237.60000000000002, 98.9%, 85.1%)" stroke-width="1.5"></path><path d="M1557.15 235.82L1557.15 235.82" stroke="hsl(237.60000000000002, 98.9%, 85.1%)" stroke-width="1.5"></path><path d="M1557.15 235.82L1590.67 342.25" stroke="hsl(237.60000000000002, 98.9%, 85.1%)" stroke-width="1.5"></path><path d="M1557.15 235.82L1451.94 92.45" stroke="hsl(237.60000000000002, 98.9%, 85.1%)" stroke-width="1.5"></path><path d="M1590.67 342.25L1590.67 342.25" stroke="hsl(237.60000000000002, 98.9%, 85.1%)" stroke-width="1.5"></path><path d="M1590.67 342.25L1573.76 549.51" stroke="hsl(237.60000000000002, 98.9%, 85.1%)" stroke-width="1.5"></path><path d="M1590.67 342.25L1417.02 190.75" stroke="hsl(237.60000000000002, 98.9%, 85.1%)" stroke-width="1.5"></path><path d="M1590.67 342.25L1415.03 550.24" stroke="hsl(237.60000000000002, 98.9%, 85.1%)" stroke-width="1.5"></path><path d="M1573.76 549.51L1573.76 549.51" stroke="hsl(237.60000000000002, 98.9%, 85.1%)" stroke-width="1.5"></path><path d="M1573.76 549.51L1561.1 646.56" stroke="hsl(237.60000000000002, 98.9%, 85.1%)" stroke-width="1.5"></path><path d="M1561.1 646.56L1561.1 646.56" stroke="hsl(237.60000000000002, 98.9%, 85.1%)" stroke-width="1.5"></path><path d="M1561.1 646.56L1273.57 654.63" stroke="hsl(237.60000000000002, 98.9%, 85.1%)" stroke-width="1.5"></path><path d="M1561.1 646.56L1590.67 342.25" stroke="hsl(237.60000000000002, 98.9%, 85.1%)" stroke-width="1.5"></path><circle r="25" cx="-53.44" cy="642.84" fill="url(#SvgjsRadialGradient1015)"></circle><circle r="25" cx="210.5" cy="531.62" fill="url(#SvgjsRadialGradient1015)"></circle><circle r="25" cx="395.94" cy="490.92" fill="url(#SvgjsRadialGradient1015)"></circle><circle r="25" cx="496" cy="545.24" fill="url(#SvgjsRadialGradient1015)"></circle><circle r="25" cx="532.16" cy="684.97" fill="url(#SvgjsRadialGradient1015)"></circle><circle r="25" cx="658.21" cy="492.54" fill="url(#SvgjsRadialGradient1015)"></circle><circle r="25" cx="1128.62" cy="684.75" fill="url(#SvgjsRadialGradient1015)"></circle><circle r="25" cx="1449.14" cy="-90.46" fill="url(#SvgjsRadialGradient1015)"></circle><circle r="5" cx="-84.3" cy="558.76" fill="#a8abff"></circle><circle r="5" cx="91.69" cy="671.07" fill="#a8abff"></circle><circle r="5" cx="222.19" cy="679.37" fill="#a8abff"></circle><circle r="5" cx="392.09" cy="708.16" fill="#a8abff"></circle><circle r="5" cx="689.34" cy="404.34" fill="#a8abff"></circle><circle r="5" cx="652.1" cy="639.05" fill="#a8abff"></circle><circle r="5" cx="847.92" cy="347.06" fill="#a8abff"></circle><circle r="5" cx="830.68" cy="515.6" fill="#a8abff"></circle><circle r="5" cx="842.75" cy="702.73" fill="#a8abff"></circle><circle r="5" cx="983.06" cy="384.99" fill="#a8abff"></circle><circle r="5" cx="1121.12" cy="227.26" fill="#a8abff"></circle><circle r="5" cx="1115.96" cy="411.11" fill="#a8abff"></circle><circle r="5" cx="1112.87" cy="504.61" fill="#a8abff"></circle><circle r="5" cx="1243.82" cy="-109.37" fill="#a8abff"></circle><circle r="5" cx="1251.78" cy="109.36" fill="#a8abff"></circle><circle r="5" cx="1292.84" cy="191.08" fill="#a8abff"></circle><circle r="5" cx="1270.98" cy="379.81" fill="#a8abff"></circle><circle r="5" cx="1265.02" cy="559.37" fill="#a8abff"></circle><circle r="5" cx="1273.57" cy="654.63" fill="#a8abff"></circle><circle r="5" cx="1451.94" cy="92.45" fill="#a8abff"></circle><circle r="5" cx="1417.02" cy="190.75" fill="#a8abff"></circle><circle r="5" cx="1411.95" cy="373.98" fill="#a8abff"></circle><circle r="5" cx="1415.03" cy="550.24" fill="#a8abff"></circle><circle r="5" cx="1434.13" cy="685.08" fill="#a8abff"></circle><circle r="5" cx="1542.42" cy="-87.65" fill="#a8abff"></circle><circle r="5" cx="1567.63" cy="42.94" fill="#a8abff"></circle><circle r="5" cx="1557.15" cy="235.82" fill="#a8abff"></circle><circle r="5" cx="1590.67" cy="342.25" fill="#a8abff"></circle><circle r="5" cx="1573.76" cy="549.51" fill="#a8abff"></circle><circle r="5" cx="1561.1" cy="646.56" fill="#a8abff"></circle></g><defs><mask id="SvgjsMask1014"><rect width="1440" height="560" fill="#ffffff"></rect></mask><radialGradient id="SvgjsRadialGradient1015"><stop stop-color="#ffffff" offset="0.1"></stop><stop stop-color="rgba(80, 87, 254, 1)" offset="0.2"></stop><stop stop-color="rgba(80, 87, 254, 0)" offset="1"></stop></radialGradient></defs></svg>